<?xml version="1.0" encoding="UTF-8"?>
<svg id="Layer_1" xmlns="http://www.w3.org/2000/svg" version="1.1" viewBox="0 0 448 448">
  <!-- Generator: Adobe Illustrator 30.4.0, SVG Export Plug-In . SVG Version: 2.1.4 Build 226)  -->
  <defs>
    <style>
      .st0 {
        fill: #ffbbbe;
      }
    </style>
  </defs>
  <path class="st0" d="M64,0C28.7,0,0,28.7,0,64v320c0,35.3,28.7,64,64,64h320c35.3,0,64-28.7,64-64V64c0-35.3-28.7-64-64-64H64ZM69,170.2h66.5v213.8h-66.5v-213.8ZM140.7,102.5c0,21.26-17.24,38.5-38.5,38.5s-38.5-17.24-38.5-38.5,17.24-38.5,38.5-38.5,38.5,17.24,38.5,38.5ZM317.9,384v-104c0-24.8-.5-56.7-34.5-56.7s-39.9,27-39.9,54.9v105.8h-66.4v-213.8h63.7v29.2h.9c8.9-16.8,30.6-34.5,62.9-34.5,67.2,0,79.7,44.3,79.7,101.9v117.2h-66.4Z"/>
</svg>